<svg version="1.0" xmlns="http://www.w3.org/2000/svg" width="933.333" height="933.333" viewBox="0 0 700 700"><path d="M339.6 3.5c-26.5 11.5-55.3 34.8-66.2 53.4-8.8 15.1-15.2 35.9-15.8 52.2-.2 4.4-.6 5-10.7 15-12.3 12.2-13.9 14.1-19.6 23.4-7.9 12.8-12.8 29.2-13.6 45.2l-.3 7.2-7.1 7.4c-15.2 16-26.1 38.3-30 61.1-1.2 7.1-1.1 27.5.2 35.1 1 6 1 8.1.2 8.4-2.9.9-9.8 9.8-11.7 14.8-6.4 17.1.9 34.5 17.5 41.8 2.8 1.3 6.8 2.5 9 2.9 2.2.3 4 .5 4.1.6 0 0 0 13.6.1 30.2 0 33.3 0 33.7 6.4 39.9 5.9 5.8 9 6.7 23.9 6.8l8.6.1 1.3 11.2c1.4 12.4 1.7 14.8 2.7 22.3.3 2.7.7 6.3.9 8 .3 3.7 1.3 12.5 2.5 22.5.5 4.1 1.2 10 1.5 13 .3 3 .8 6.8 1 8.5.7 4.9 2.6 20.7 2.9 24.5.9 8.3 1.7 15.7 2.1 18 .3 1.4.7 5.2 1 8.5.4 3.3.8 7.1 1 8.5.2 1.4.7 5.6 1.1 9.5.3 3.8.8 7.7.9 8.5.4 2.5 1.8 13.8 3 25 .3 3 .8 7.1 1 9 .3 1.9.7 5.7 1 8.5.3 2.7.7 6.6 1 8.5.7 5.4 1.4 11 2 16.9 1 9.4 5.9 15.7 14.8 19 1.9.7 24 1.1 65.6 1.1h62.7l4.6-2.9c7.4-4.7 10.1-9.7 11.2-20.8.6-5.6 1.7-15.3 2.1-18.3.2-1.4.7-5 1-8 .3-3 1-9.1 1.6-13.5 1.4-11.7 1.7-14 2.9-25 .6-5.5 1.3-11.4 1.5-13 .2-1.7.7-5.5 1-8.5.3-3 .8-7.3 1.1-9.5.7-5.1 1.2-9.6 1.9-16.5.3-3 1.7-15 3-26.5 2.8-23.2 3.2-27.3 4.1-34.3.3-2.6.9-8.1 1.4-12.2.6-4.1 1.2-10.2 1.6-13.4.3-3.3.7-6.7.9-7.5.3-2 1.9-16.1 1.9-18.3.1-.9.4-1.9.8-2.3.3-.4 5.5-.8 11.5-.9 5.9-.2 12-.8 13.4-1.3 6-2.6 12.1-10.1 13.3-16.5.3-1.3.5-15.1.5-30.8l.1-28.5 3.8-.3c10.6-.7 20.7-7.7 25.8-17.9 2.5-5 2.9-6.9 2.9-14.3 0-8.1-.2-8.9-3.5-14-1.9-3-4.7-6.7-6.2-8.2L506 314l2-5.3c7.4-20.1 9.6-46.8 5.5-67-2.3-11.6-10.6-31.1-17.7-41.5-14-20.8-34.2-40.2-65-62.3-6.5-4.6-18.4-13.1-26.4-18.9-8.1-5.8-17.6-13.4-21.1-17-12.1-12-19.9-26-24.3-43.3-2.4-9.6-2.7-12.6-2.5-22.6.4-12.8.9-17.2 2.5-20.1.6-1.1.9-2 .6-2-.3 0-.1-1.3.4-2.9C361.5 5.8 356.1 0 349.7 0c-1.2 0-5.7 1.6-10.1 3.5zm-4 33.2c-.1 20.2 4.1 36.7 13.5 54.3 10 18.6 23 31.7 48.9 49.5 46.3 31.8 63.5 47 79.3 70.2 18.5 27.3 23 57.2 13.1 88.5l-2.5 8-36.7-.6c-20.2-.3-38.3-.8-40.2-1-1.9-.2-6.7-.6-10.5-1-3.9-.3-8-.8-9-1-1.1-.2-4.7-.7-8-1-7.1-.9-11.4-1.5-13.5-2.1-.8-.2-3.5-.7-6-1-7.6-1.1-34-8.1-44.1-11.8-37.6-13.7-62.5-32.4-75.7-56.9-12.5-23.2-11-54.7 3.6-77.8 4-6.3 11-15 12.2-15 .4 0 1.5 2.4 2.4 5.4 5.6 17.8 22.8 37.5 45.2 51.8 9.2 5.8 31.9 16.6 48.9 23.2 9.4 3.7 18 7.1 19.3 7.6 8.1 3.5 16.1-2.3 15.3-11-.4-4-3.7-6.6-12.4-10-24.8-9.6-32.3-12.8-42.7-17.7-40.5-19.3-58.8-43.4-58.2-76.4.5-25.9 12.2-49.4 32.6-65.7 7.5-6 23.5-17.2 24.6-17.2.3 0 .6 3.9.6 8.7zM221.5 232.4c6.2 14.4 19.8 31.6 33.3 42.6 27.7 22.3 71.9 39.2 119 45.6 2 .3 4.8.7 6.2.8 1.4.2 5.7.7 9.5 1.1 3.9.4 8.6.8 10.5 1.1 7.9.9 31.1 1.6 58.1 1.7 31.9.2 30.9 0 34.4 7.3 1.3 2.8 1.4 4.1.5 6.9-1.3 3.8-5.2 7.5-8.1 7.5-1.1 0-1.9.4-1.9.9s-6.8.9-15.2.9c-23 0-22.3-.1-25.7 2.8-2.4 2-3.1 3.4-3.1 6.2.1 6.9 3.7 9.2 14.8 9.4l7.9.2-.1 28.1-.1 28H340c-66.8 0-122.2-.1-123.1-.3-1.3-.3-1.5-3.7-1.5-28l.1-27.7 96.2-.1c88.2-.1 96.5-.3 98.8-1.8 5.2-3.4 5.7-11.2.9-15.7l-2.5-2.4H300.2c-59.8-.1-109.6-.4-110.7-.8-2.8-1-6.5-6.8-6.5-10.1 0-3.7 2.3-7.9 5.2-9.4 1.4-.7 8.2-1.3 17.1-1.4l14.9-.3 2.4-2.8c5.1-6 1.8-15.5-5.6-16.2-1.9-.2-7.2-.4-11.7-.4l-8.2-.1-.7-3.5c-.9-4.8-1-20.7-.2-28 1.9-17.2 7.4-31.6 17.3-45.4 2.1-2.9 4-5 4.2-4.7.3.3 2 3.9 3.8 8zM321 446.9c0 .4-6.5 7.1-14.5 14.9l-14.6 14.1-15.1-14.8-15.2-14.9h29.7c16.3 0 29.7.3 29.7.7zm80.4 13.8c-8.2 7.9-15.3 14.3-15.9 14.3-.5 0-7.5-6.5-15.4-14.4l-14.4-14.4 30.2.1 30.2.1-14.7 14.3zm-46.6 14.1c8.3 8.2 15.2 15.3 15.2 15.8s-7 7.9-15.6 16.4l-15.5 15.4-12.5-12.9c-6.9-7.2-14-14.5-15.7-16.3l-3.2-3.3 15-14.8c8.3-8.2 15.5-14.9 16-15 .6-.1 7.9 6.6 16.3 14.7zm64.7 2.4c-.4 3.5-.9 7.6-1.1 9.3-.2 1.6-.7 6-1 9.7-.4 3.6-1 7.2-1.4 7.9-.6.8-3.1-1.1-8.3-6.4l-7.5-7.6 8.6-8.3c4.8-4.6 9-8.9 9.5-9.6 1.6-2.4 1.9-1.1 1.2 5zm-111 44.3 15.7 14.9-16.1 15.8-16.1 15.7-13.4-13.2c-12.5-12.3-13.5-13.5-13.9-17.5l-.5-4.4 13.7-13.4c7.5-7.3 13.9-13.3 14.3-13.1.4.1 7.7 6.9 16.3 15.2zm91.7-1.9 13.3 13.1-.7 4.4c-.7 3.9-2.2 5.8-14.3 17.9L385 568.5l-15.7-15.7-15.7-15.8 15.9-15.5c8.8-8.5 16.3-15.4 16.7-15.2.4.1 6.7 6.1 14 13.3zm-42.3 49.8c7.2 7 13.1 13.1 13.1 13.5 0 .4-3 3.5-6.7 7-3.8 3.5-11 10.4-16.1 15.4l-9.4 9-15.6-15.7-15.6-15.6 15.9-16 16-16 2.6 2.7c1.5 1.6 8.6 8.6 15.8 15.7zm-83.2 16.3c-1.7 1.8-3.2 3.1-3.5 2.9-.2-.2-.6-3.5-.9-7.3l-.5-6.8 4 4 4 4-3.1 3.2zm132.9-6.5c-.3 2.4-.5 5.6-.5 7.2l-.1 3-3.5-3.4-3.5-3.4 3.8-3.8c2-2.1 3.9-3.8 4-3.8.2 0 .1 1.9-.2 4.2zm-104.1 54.6c-13.7.1-25.5 0-26.1-.2-.6-.2-1.5-3.5-1.9-7.2-.4-3.7-.9-7.8-1.1-9.1-.4-1.9 1.3-4.2 8.6-11.4l9-9.1 18.2 18.4 18.3 18.3-25 .3zm91.7-27c7 7.1 8.7 9.3 8.3 11.3-.2 1.3-.6 5.3-1 8.9-.3 3.5-.8 6.7-1.1 7-.7.6-52.4.8-52.4.1 0-.6 36.4-36.1 37-36.1.3 0 4.4 4 9.2 8.8zm3.3 50.9c-.2 1.6-.7 5.6-1.1 9-.3 3.4-.7 7-.9 8-.2 1-.4 2.1-.4 2.4-.2 1.2-114.2.7-114.6-.5-.2-.6-.6-3.8-.9-7.1-.3-3.3-.8-7.9-1.2-10.3l-.6-4.2H399l-.5 2.7z"/></svg>