<svg aria-hidden="true" style="position: absolute; width: 0; height: 0; overflow: hidden;" version="1.1" xmlns="http://www.w3.org/2000/svg" xmlns:xlink="http://www.w3.org/1999/xlink">
<defs>
<symbol id="icon-cow" viewBox="0 0 31 32">
<path d="M6.002 0.778c-0.254 0.219-0.98 1.732-1.24 2.558-0.31 1.024-0.415 1.792-0.374 2.851 0.056 1.514 0.437 2.662 1.275 3.861 0.219 0.315 0.395 0.585 0.395 0.607 0 0.015-0.134 0.029-0.303 0.029-0.726 0-2.086 0.241-3.128 0.555-1.655 0.497-2.627 1.367-2.627 2.34 0 0.343 0.31 0.928 0.641 1.228 0.641 0.578 2.043 1.126 3.55 1.389 0.521 0.095 2.071 0.256 2.416 0.264 0.063 0 0.085 0.336 0.085 1.44 0 0.951 0.035 1.689 0.106 2.142 0.253 1.623 1.042 3.342 2.084 4.555l0.36 0.417-0.24 0.387c-0.352 0.548-0.486 0.965-0.528 1.586-0.106 1.492 0.823 2.815 2.621 3.744 3.422 1.776 8.741 1.082 10.735-1.404 0.972-1.214 1.085-2.603 0.317-3.861l-0.24-0.388 0.43-0.519c0.803-0.965 1.324-1.93 1.718-3.152 0.331-1.038 0.458-2.040 0.458-3.626 0-0.724 0.021-1.323 0.056-1.323 0.324-0.008 1.881-0.176 2.374-0.264 1.514-0.263 2.889-0.804 3.55-1.389 0.331-0.3 0.641-0.885 0.641-1.228 0-1.083-1.098-1.96-3.142-2.486-0.669-0.176-1.93-0.387-2.543-0.424l-0.289-0.023 0.317-0.438c0.394-0.534 0.887-1.571 1.078-2.252 0.535-1.967 0.204-4.255-0.944-6.441-0.48-0.905-0.811-1.117-1.198-0.759-0.148 0.138-0.212 0.329-0.352 1.016-0.437 2.186-1.247 3.92-2.43 5.199l-0.521 0.571h-11.144l-0.465-0.505c-1.155-1.271-1.994-3.070-2.43-5.264-0.141-0.688-0.204-0.877-0.352-1.016-0.233-0.212-0.458-0.205-0.718 0.022zM6.903 5.114c0.374 0.819 0.839 1.586 1.387 2.295l0.437 0.563-0.457 0.344c-0.43 0.329-0.831 0.797-1.142 1.33l-0.133 0.242-0.338-0.461c-1.155-1.594-1.444-3.546-0.831-5.571 0.296-0.98 0.289-0.973 0.556-0.125 0.127 0.409 0.367 1.031 0.521 1.382zM25.238 3.571c0.255 0.709 0.403 1.526 0.403 2.378 0 0.030-0 0.060-0.001 0.090l0-0.005c0 1.331-0.352 2.456-1.091 3.465l-0.331 0.453-0.247-0.417c-0.319-0.54-0.732-0.991-1.22-1.344l-0.013-0.009c-0.19-0.124-0.337-0.248-0.337-0.263 0-0.022 0.133-0.19 0.303-0.373 0.782-0.87 1.62-2.435 2.036-3.779 0.126-0.418 0.253-0.761 0.274-0.761s0.127 0.256 0.225 0.562zM21.64 8.916c0.782 0.329 1.528 1.271 1.648 2.069 0.063 0.439 0.211 0.717 0.401 0.761 0.085 0.015 0.669 0.066 1.296 0.109 2.225 0.147 3.979 0.622 4.727 1.272 0.345 0.307 0.31 0.563-0.105 0.878-0.831 0.629-2.627 1.104-4.459 1.185-1.212 0.051-1.465 0.086-1.628 0.255-0.119 0.125-0.133 0.256-0.133 1.579 0 1.792-0.092 2.823-0.317 3.656-0.317 1.133-0.944 2.34-1.676 3.196l-0.303 0.351-0.627-0.373c-0.669-0.415-1.445-0.74-2.272-0.933l-0.053-0.010c-2.67-0.636-5.622-0.248-7.607 1.002l-0.458 0.292-0.289-0.343c-0.394-0.461-1.014-1.448-1.261-2.003-0.542-1.258-0.704-2.282-0.704-4.534 0-2.186 0.112-2.026-1.507-2.113-2.071-0.11-3.65-0.483-4.643-1.111-0.733-0.468-0.612-0.885 0.409-1.375 0.979-0.476 2.324-0.76 4.191-0.877 1.451-0.095 1.486-0.117 1.62-0.819 0.197-1.060 0.979-1.937 1.966-2.216 0.246-0.073 1.627-0.087 5.853-0.080l5.53 0.014 0.401 0.169zM17.68 24.051c1.726 0.424 3.015 1.213 3.572 2.193 0.134 0.227 0.19 0.461 0.218 0.819 0.029 0.446 0.008 0.555-0.162 0.921-0.782 1.661-3.656 2.756-6.579 2.508-3.515-0.292-5.826-2.252-4.917-4.175 0.493-1.038 2.162-2.032 3.923-2.326 0.289-0.043 0.578-0.095 0.634-0.11s0.691-0.015 1.41 0c0.978 0.023 1.45 0.066 1.901 0.169z"></path>
<path d="M10.693 12.579c-0.437 0.147-0.733 0.337-1.127 0.732-0.346 0.329-0.374 0.716-0.085 0.95 0.268 0.219 0.521 0.19 0.845-0.095 0.409-0.359 0.726-0.505 1.121-0.505 0.394-0.007 0.697 0.132 1.119 0.505 0.324 0.285 0.578 0.314 0.846 0.095 0.141-0.118 0.183-0.212 0.183-0.432 0-0.226-0.049-0.329-0.297-0.577-0.697-0.702-1.732-0.972-2.606-0.673zM18.906 12.572c-0.45 0.168-1.028 0.548-1.26 0.833-0.226 0.278-0.233 0.592 0 0.827 0.232 0.248 0.514 0.233 0.852-0.044 0.831-0.688 1.451-0.709 2.219-0.073 0.197 0.169 0.422 0.3 0.493 0.3 0.345 0 0.627-0.307 0.627-0.673 0-0.233-0.585-0.775-1.113-1.031-0.585-0.285-1.282-0.336-1.817-0.138zM11.715 26.106c-0.204 0.197-0.275 0.483-0.169 0.709 0.078 0.183 0.197 0.256 0.683 0.387 0.219 0.058 0.31 0.131 0.387 0.314 0.099 0.242 0.106 0.242 0.649 0.264l0.542 0.022v-0.205c-0.007-0.292-0.169-0.716-0.381-1.008-0.246-0.337-0.676-0.556-1.162-0.6-0.331-0.029-0.415-0.015-0.549 0.118zM18.442 26.054c-0.352 0.095-0.859 0.571-1 0.943-0.070 0.196-0.118 0.423-0.134 0.658l-0 0.008c-0.014 0.314 0.014 0.387 0.183 0.541 0.415 0.365 0.965 0.080 0.965-0.505 0-0.285 0.211-0.483 0.585-0.555 0.394-0.073 0.535-0.233 0.542-0.607 0-0.489-0.437-0.68-1.142-0.483z"></path>
</symbol>
<symbol id="icon-weight" viewBox="0 0 32 32">
<path d="M14.178 0.547c-3.974 0.589-7.247 2.796-8.452 5.685-0.384 0.913-0.487 1.474-0.487 2.573 0.007 0.812 0.036 1.114 0.163 1.552 0.258 0.862 0.443 1.301 0.827 1.92l0.356 0.574-0.4 0.489c-3.154 3.924-3.501 9.444-0.871 13.793 0.982 1.631 2.586 3.235 4.151 4.169l0.466 0.273 12.743-0.108 0.302-0.165c1.057-0.596 2.548-1.926 3.383-3.004 1.208-1.569 2.064-3.472 2.413-5.546l0.010-0.074c0.118-0.74 0.118-2.933-0.007-3.63-0.377-2.148-1.182-3.988-2.452-5.62-0.244-0.309-0.436-0.568-0.436-0.589 0-0.014 0.133-0.237 0.288-0.489 0.362-0.575 0.687-1.316 0.864-1.962 0.199-0.719 0.199-2.516 0-3.235-0.709-2.551-2.836-4.679-5.843-5.851-0.843-0.331-2.284-0.683-3.214-0.797-0.864-0.101-2.999-0.080-3.804 0.043zM18.676 1.718c3.945 0.769 6.834 3.184 7.365 6.16 0.118 0.668 0.044 1.804-0.155 2.436-0.2 0.619-0.569 1.345-1.004 1.963-0.178 0.252-0.325 0.54-0.325 0.633s0.155 0.338 0.377 0.582c1.846 2.048 2.821 4.614 2.821 7.388-0.007 3.156-1.219 5.923-3.553 8.093-0.399 0.373-0.968 0.841-1.271 1.042l-0.554 0.373-12.211 0.051-0.473-0.302c-1.714-1.114-3.258-2.954-4.115-4.908-1.078-2.472-1.189-5.34-0.31-7.913 0.466-1.337 1.086-2.429 2.031-3.58 0.385-0.46 0.562-0.733 0.562-0.862 0-0.108-0.192-0.46-0.444-0.827-0.886-1.287-1.248-2.717-1.034-4.068 0.222-1.365 0.842-2.487 1.987-3.601 1.493-1.444 3.576-2.4 6.021-2.76 1.012-0.151 3.25-0.093 4.284 0.1z"></path>
<path d="M14.509 2.983c-3.028 0.496-5.4 2.178-6.175 4.385-0.178 0.495-0.207 0.69-0.207 1.401s0.029 0.907 0.207 1.402c0.11 0.316 0.317 0.755 0.458 0.978 0.384 0.618 0.554 0.64 1.316 0.18 1.094-0.674 2.368-1.19 3.727-1.474l0.078-0.014c0.916-0.187 2.674-0.259 3.671-0.144 1.558 0.18 3.25 0.74 4.602 1.538 0.384 0.223 0.776 0.411 0.871 0.411 0.562 0 1.278-1.618 1.278-2.876 0-2.796-2.674-5.189-6.463-5.786-0.805-0.129-2.587-0.129-3.362 0zM18.166 4.133c1.271 0.273 2.437 0.791 3.317 1.473 1.182 0.913 1.817 2.186 1.713 3.414-0.036 0.489-0.221 1.15-0.332 1.222-0.030 0.014-0.444-0.158-0.916-0.388-0.926-0.453-2.004-0.832-3.131-1.081l-0.097-0.018c-0.687-0.144-0.975-0.165-2.511-0.158-1.515 0-1.832 0.021-2.489 0.158-1.138 0.244-2.025 0.547-3.118 1.064-1.1 0.524-1.042 0.532-1.241-0.116-0.258-0.841-0.096-1.955 0.406-2.796 0.267-0.445 0.997-1.186 1.529-1.553 1.012-0.697 1.899-1.013 3.804-1.358 0.391-0.071 2.564 0.029 3.066 0.137zM16.963 13.404c-0.207 0.26-0.207 0.504 0.007 0.712 0.14 0.137 0.281 0.172 0.791 0.209 1.034 0.075 1.983 0.38 2.815 0.865l-0.031-0.017c0.606 0.359 1.529 1.228 1.943 1.854 0.613 0.898 1.034 2.185 1.034 3.133 0 0.331 0.030 0.431 0.185 0.575 0.236 0.237 0.547 0.237 0.776 0 0.163-0.165 0.169-0.208 0.125-0.913-0.207-3.478-3.184-6.382-6.744-6.576l-0.74-0.044-0.162 0.202z"></path>
</symbol>
<symbol id="icon-ice-cream" viewBox="0 0 32 32">
<path d="M16.108 0.107c0.080 0.215 0.241 1.252 0.241 1.573 0 0.003 0 0.007 0 0.011 0 0.818-0.318 1.561-0.838 2.114l0.001-0.002c-0.449 0.482-0.898 0.749-1.975 1.185-1.198 0.489-1.694 0.783-2.256 1.339-0.569 0.569-0.904 1.191-1.024 1.922-0.134 0.796 0 1.358 0.408 1.68l0.207 0.16-0.328 0.208c-0.662 0.436-1.867 1.46-2.075 1.774-0.402 0.603-0.362 1.164 0.093 1.393l0.214 0.107-0.241 0.228c-0.362 0.341-0.436 0.576-0.382 1.191 0.034 0.409 0.020 0.63-0.073 0.964-0.114 0.436-0.114 0.442 0.033 0.75 0.148 0.301 0.563 0.683 0.938 0.844 0.18 0.080 0.187 0.107 0.228 0.723 0.020 0.356 0.053 1.486 0.080 2.517 0.020 1.031 0.068 1.975 0.107 2.089 0.034 0.12 0.161 0.281 0.276 0.361 0.388 0.268 0.656 0.556 0.829 0.891 0.195 0.382 0.409 1.319 1.058 4.559l0.455 2.276 0.282 0.268c0.535 0.529 1.56 0.77 3.247 0.77 1.693 0 2.704-0.235 3.24-0.764l0.288-0.274 0.414-2.109c0.916-4.612 0.997-4.867 1.714-5.436 0.22-0.181 0.436-0.402 0.475-0.502 0.047-0.114 0.094-0.991 0.127-2.316 0.027-1.178 0.068-2.343 0.094-2.591l0.040-0.448 0.436-0.329c0.548-0.421 0.763-0.803 0.763-1.392-0.006-0.696-0.462-1.46-1.292-2.142l-0.396-0.321 0.195-0.276c0.81-1.117 0.301-2.664-1.205-3.694l-0.455-0.315 0.167-0.174c0.743-0.796 0.864-3.173 0.241-4.827-0.374-0.984-1.232-2.055-2.283-2.845-0.514-0.388-1.934-1.245-2.060-1.245-0.027 0-0.027 0.047-0.006 0.107zM18.036 2.444c0.356 0.348 0.783 0.823 0.951 1.064 0.997 1.393 1.252 3.14 0.649 4.426-0.241 0.522-0.964 1.298-1.634 1.76-1.024 0.71-3.327 1.902-4.933 2.557-2.584 1.052-4.084 1.252-4.258 0.563-0.068-0.261 0.127-0.468 0.951-1.018 0.742-0.508 4.076-2.986 4.136-3.086 0.020-0.027-0.321 0.127-0.749 0.341-1.452 0.737-2.142 0.596-2.108-0.428 0.020-0.743 0.556-1.587 1.298-2.068 0.188-0.12 0.771-0.388 1.307-0.603 1.76-0.709 2.296-1.071 2.892-1.961 0.356-0.529 0.743-1.507 0.77-1.922 0.007-0.147 0.034-0.261 0.053-0.261s0.322 0.288 0.676 0.636zM19.863 10.050c0.489 0.274 0.997 0.743 1.218 1.111 0.389 0.662 0.188 1.325-0.649 2.169-0.91 0.924-2.463 1.808-4.171 2.37-1.573 0.516-3.079 0.756-5.236 0.83l-1.339 0.047 0.871 0.053c1.124 0.074 3.3 0.007 4.143-0.127 2.243-0.356 4.151-1.065 5.516-2.042 0.308-0.221 0.629-0.402 0.716-0.402 0.221 0 1.185 0.924 1.38 1.312 0.107 0.221 0.133 0.382 0.114 0.596-0.1 0.891-1.186 1.366-3.803 1.68-3.2 0.382-7.384 0.007-9.172-0.816-0.844-0.388-0.984-0.61-0.77-1.198 0.067-0.188 0.080-0.409 0.053-0.724-0.034-0.415-0.027-0.468 0.12-0.622 0.335-0.362 0.898-0.569 2.96-1.092 0.723-0.187 1.707-0.482 2.175-0.656 1.138-0.415 3.274-1.493 4.264-2.156 0.931-0.616 1.065-0.643 1.607-0.334zM10.972 18.244c1.406 0.409 2.652 0.529 4.968 0.482 1.74-0.033 2.812-0.14 4.357-0.415 0.316-0.053 0.589-0.1 0.623-0.1 0.074 0 0.053 2.571-0.027 3.247-0.087 0.716-0.282 1.272-0.489 1.406-0.214 0.14-1.285 0.288-2.718 0.368-2.939 0.16-5.958 0-6.895-0.375-0.508-0.207-0.563-0.476-0.569-2.959 0-1.653 0.013-1.881 0.1-1.847 0.053 0.020 0.348 0.107 0.649 0.194zM12.559 23.934c0.482 0.060 1.004 0.12 1.164 0.14l0.289 0.034-0.255 0.281c-0.328 0.355-0.83 1.064-1.011 1.426-0.207 0.415-0.275 0.442-0.582 0.275l-0.261-0.148-0.147-0.91c-0.078-0.506-0.143-0.863-0.216-1.217l0.028 0.165c-0.060-0.173-0.121-0.173 0.99-0.046zM19.696 23.86c0 0.013-0.034 0.187-0.068 0.382-0.040 0.2-0.207 1.292-0.374 2.429-0.341 2.377-0.569 3.494-0.777 3.869-0.288 0.502-0.978 0.796-2.095 0.891-0.436 0.034-1.748-0.053-1.821-0.121-0.053-0.060 1.098-1.486 1.279-1.58 0.167-0.094 0.213-0.080 0.782 0.213 0.663 0.349 0.998 0.403 0.998 0.181s-0.174-0.436-0.603-0.729c-0.395-0.282-0.535-0.443-0.535-0.63 0-0.053 0.194-0.355 0.428-0.669s0.575-0.817 0.749-1.118l0.329-0.542 0.3 0.041c0.609 0.087 0.77 0.080 0.75-0.053-0.013-0.068-0.127-0.261-0.255-0.422-0.127-0.167-0.228-0.335-0.228-0.368 0-0.127 0.622-1.299 0.824-1.547 0.174-0.214 0.315-0.322 0.315-0.228zM15.512 24.396c0.334 0.221 1.593 1.313 1.673 1.446 0.034 0.060-1.258 2.082-1.513 2.37-0.027 0.034-0.167-0.033-0.308-0.14-0.312-0.235-0.692-0.499-1.080-0.752l-0.085-0.052-0.904-0.596 0.542-0.917c0.964-1.613 0.944-1.587 1.151-1.587 0.107 0 0.341 0.1 0.523 0.228zM18.049 24.636c-0.235 0.288-0.428 0.469-0.508 0.469-0.174 0-0.456-0.154-0.931-0.502l-0.396-0.288 0.791-0.047c0.348-0.013 0.665-0.034 0.98-0.065l-0.064 0.005c0.536-0.087 0.536-0.080 0.128 0.428zM12.988 27.857c0.616 0.241 1.66 0.81 1.962 1.065 0.214 0.173 0.214 0.187 0.127 0.401-0.141 0.281-0.279 0.516-0.43 0.741l0.015-0.024c-0.128 0.191-0.277 0.434-0.417 0.682l-0.032 0.061c-0.213 0.415-0.281 0.449-0.723 0.329-0.476-0.141-0.729-0.382-0.863-0.818-0.181-0.609-0.469-2.329-0.436-2.597 0.013-0.1 0.294-0.040 0.796 0.161z"></path>
</symbol>
<symbol id="icon-github" viewBox="0 0 32 32">
<path d="M16 0c-8.789 0-16 7.211-16 16 0 7.499 5.262 14.312 12.25 16v-5.293c-0.276 0.070-0.593 0.109-0.919 0.109-0.398 0-0.781-0.059-1.143-0.169l0.028 0.007c-0.946-0.278-1.714-0.909-2.285-1.869-0.363-0.613-1.008-1.28-1.68-1.23l-0.165-1.867c1.454-0.125 2.71 0.886 3.456 2.139 0.333 0.558 0.715 0.885 1.205 1.029 0.472 0.141 0.981 0.074 1.573-0.136 0.149-1.186 0.693-1.629 1.104-2.256-4.168-0.621-5.829-2.832-6.488-4.576-0.874-2.318-0.405-5.213 1.139-7.043 0.030-0.035 0.085-0.128 0.064-0.192-0.709-2.141 0.154-3.91 0.186-4.098 0.818 0.24 0.95-0.243 3.552 1.336l0.448 0.27c0.189 0.112 0.128 0.048 0.317 0.032 1.003-0.282 2.157-0.452 3.349-0.469l0.010-0c1.136 0.014 2.272 0.176 3.403 0.483l0.146 0.016c-0.013-0.003 0.040-0.010 0.128-0.062 3.248-1.968 3.131-1.325 4.003-1.608 0.032 0.189 0.882 1.987 0.182 4.099-0.096 0.291 2.816 2.957 1.202 7.235-0.659 1.744-2.32 3.957-6.486 4.578 0.534 0.816 1.176 1.248 1.173 2.928v6.606c6.986-1.688 12.25-8.501 12.25-16 0-8.789-7.211-16-16-16z"></path>
</symbol>
<symbol id="icon-telegram" viewBox="0 0 44 32">
<path d="M17.346 21.048l-0.676 8.86c0.966 0 1.384-0.388 1.886-0.852l4.528-4.040 9.38 6.414c1.72 0.894 2.932 0.422 3.396-1.478l6.16-26.932c0.546-2.372-0.92-3.3-2.596-2.72l-36.194 12.934c-2.47 0.896-2.432 2.18-0.42 2.766l9.254 2.686 21.494-12.552c1.010-0.626 1.93-0.28 1.174 0.346l-17.386 14.57z"></path>
</symbol>
<symbol id="icon-facebook" viewBox="0 0 16 32">
<path d="M14.143 15.971h-4.033v14.865h-6.112v-14.865h-2.906v-5.222h2.906v-3.382c0-2.417 1.142-6.204 6.167-6.204l4.527 0.019v5.072h-3.284c-0.538 0-1.297 0.272-1.297 1.425v3.073h4.567l-0.534 5.219z"></path>
</symbol>
<symbol id="icon-arrow-focus" viewBox="0 0 69 32">
<path d="M68.080 17.413c0.361-0.362 0.585-0.861 0.585-1.413s-0.224-1.052-0.585-1.413l-12.727-12.729c-0.362-0.362-0.862-0.586-1.415-0.586-1.105 0-2.001 0.896-2.001 2.001 0 0.552 0.224 1.053 0.586 1.415l11.316 11.313-11.315 11.313c-0.362 0.362-0.586 0.862-0.586 1.415 0 1.105 0.896 2.001 2.001 2.001 0.552 0 1.053-0.224 1.415-0.586l12.728-12.728zM0 18h66.667v-4h-66.667v4z"></path>
</symbol>
<symbol id="icon-arrow-default" viewBox="0 0 82 32">
<path d="M81.414 17.414c0.362-0.362 0.586-0.862 0.586-1.414s-0.224-1.052-0.586-1.414l-12.728-12.728c-0.364-0.377-0.874-0.611-1.439-0.611-1.105 0-2 0.895-2 2 0 0.565 0.234 1.074 0.61 1.438l0.001 0.001 11.314 11.314-11.314 11.314c-0.347 0.359-0.561 0.849-0.561 1.389 0 1.105 0.895 2 2 2 0.54 0 1.030-0.214 1.39-0.562l-0.001 0.001 12.728-12.728zM0 18h80v-4h-80v4z"></path>
</symbol>
<symbol id="icon-arrow-hover" viewBox="0 0 102 32">
<path d="M101.414 17.414c0.362-0.362 0.586-0.862 0.586-1.414s-0.224-1.052-0.586-1.414l-12.728-12.728c-0.364-0.377-0.874-0.611-1.439-0.611-1.105 0-2 0.895-2 2 0 0.565 0.234 1.074 0.61 1.438l0.001 0.001 11.314 11.314-11.314 11.314c-0.347 0.359-0.561 0.849-0.561 1.389 0 1.105 0.895 2 2 2 0.54 0 1.030-0.214 1.39-0.562l-0.001 0.001 12.728-12.728zM0 18h100v-4h-100v4z"></path>
</symbol>
<symbol id="icon-ice" viewBox="0 0 34 32">
<path d="M17.413 14.169c1.635-4.384-1.751-6.784-3.995-8.362-0.429-0.322-0.858-0.623-1.206-0.899-0.621-0.518-1.079-1.201-1.318-1.969s-0.251-1.587-0.033-2.361c0.022-0.081 0.022-0.166-0.002-0.247s-0.069-0.153-0.131-0.21c-0.062-0.057-0.139-0.096-0.223-0.112s-0.169-0.010-0.249 0.018c-0.756 0.295-1.458 0.709-2.081 1.225-0.598 0.456-1.083 1.041-1.417 1.711s-0.508 1.406-0.51 2.152c-0.423 0.33-0.797 0.716-1.111 1.149-0.577 0.778-0.866 1.729-0.819 2.693-0.687 0.624-1.199 1.413-1.486 2.291s-0.338 1.814-0.149 2.717c-0.273 0.163-0.485 0.411-0.602 0.704s-0.134 0.617-0.047 0.921c0.087 0.304 0.272 0.571 0.527 0.761s0.567 0.291 0.886 0.289h0.030v2.493c0 0.253 0.102 0.496 0.283 0.675s0.427 0.279 0.683 0.279h0.751l1.223 10.473c0.025 0.233 0.137 0.449 0.314 0.605s0.406 0.243 0.643 0.243h5.089c0.238-0.001 0.467-0.087 0.644-0.244s0.29-0.372 0.317-0.605l1.223-10.473h0.751c0.256 0 0.502-0.1 0.683-0.279s0.283-0.422 0.283-0.675v-2.493h0.030c0.388 0 0.76-0.152 1.035-0.423s0.428-0.639 0.428-1.022c0.002-0.191-0.035-0.381-0.109-0.558s-0.183-0.338-0.32-0.472l-0.013 0.004zM6.399 6.214c0.618 2.294 3.003 3.197 5.179 4.003 0.059 0.036 0.124 0.058 0.192 0.066s0.137 0 0.202-0.021c0.065-0.022 0.124-0.057 0.174-0.104s0.088-0.104 0.113-0.168c0.025-0.063 0.035-0.131 0.030-0.199s-0.025-0.133-0.058-0.193c-0.034-0.059-0.080-0.11-0.136-0.15s-0.12-0.066-0.187-0.079c-2.343-0.878-4.552-1.696-4.72-4.041-0.039-0.645 0.083-1.289 0.356-1.875s0.689-1.097 1.21-1.487c0.326-0.268 0.677-0.507 1.047-0.712-0.011 0.132-0.018 0.286-0.018 0.441s0.007 0.309 0.019 0.461l-0.001-0.020c0.050 0.672 0.236 1.327 0.547 1.927s0.741 1.131 1.264 1.563c0.356 0.301 0.798 0.611 1.287 0.941 1.128 0.801 2.411 1.696 3.226 2.909 0.435 0.622 0.706 1.341 0.787 2.093s-0.028 1.512-0.32 2.211h-1.896c-3.909 0-8.401-1.069-9.289-4.062-0.176-0.616-0.175-1.268 0.004-1.883s0.528-1.169 1.008-1.598l-0.021-0.021zM9.917 20.669l1.433 1.416-1.433 1.416-1.433-1.425 1.433-1.408zM13.204 24.388l-1.184 1.17-1.433-1.416 1.433-1.412 1.244 1.225-0.060 0.433zM9.917 27.636l-1.433-1.416 1.433-1.416 1.433 1.416-1.433 1.416zM9.261 24.15l-1.433 1.416-1.193-1.179-0.051-0.424 1.244-1.225 1.433 1.412zM7.167 26.219l-0.287 0.284-0.073-0.644 0.36 0.36zM7.017 27.67l0.811-0.801 1.575 1.569c0.008 0.032 0.018 0.063 0.030 0.093h-2.317l-0.099-0.861zM12.011 26.868l0.811 0.801-0.099 0.848h-2.381l1.669-1.649zM12.955 26.504l-0.287-0.284 0.365-0.36-0.077 0.644zM13.384 22.798l-0.717-0.721 0.91-0.899-0.193 1.62zM12.007 21.432l-1.36-1.34h2.72l-1.36 1.34zM7.824 21.432l-1.36-1.34h2.72l-1.36 1.34zM12.457 30.489h-5.084c-0.008-0.001-0.015-0.004-0.020-0.010s-0.009-0.012-0.010-0.020l-0-0-0.12-1.018h5.389l-0.116 1.018c-0.001 0.008-0.005 0.016-0.011 0.021s-0.014 0.008-0.023 0.008h-0.004zM16.392 15.716h-1.493c-0.013-0.001-0.029-0.002-0.044-0.002-0.053 0-0.104 0.009-0.151 0.025l0.003-0.001c-0.062 0.020-0.119 0.053-0.167 0.097s-0.087 0.096-0.113 0.155c-0.026 0.059-0.040 0.123-0.040 0.187s0.014 0.128 0.040 0.187c0.026 0.059 0.065 0.112 0.113 0.155s0.105 0.076 0.167 0.096 0.127 0.028 0.192 0.021h0.532v2.493c-0.001 0.009-0.005 0.016-0.011 0.021l-0 0c-0.006 0.005-0.014 0.008-0.023 0.008h-10.971c-0.008 0-0.017-0.003-0.023-0.008s-0.010-0.013-0.011-0.021l-0-0v-2.493h8.5c0.116-0.011 0.223-0.064 0.301-0.149s0.122-0.196 0.122-0.311-0.043-0.226-0.122-0.311c-0.078-0.085-0.186-0.138-0.301-0.149h-9.439c-0.014 0.001-0.031 0.002-0.048 0.002-0.061 0-0.119-0.010-0.174-0.029l0.004 0.001c-0.070-0.023-0.134-0.061-0.189-0.11s-0.098-0.109-0.128-0.176c-0.030-0.067-0.045-0.139-0.045-0.212s0.015-0.145 0.045-0.212c0.030-0.067 0.073-0.127 0.128-0.176s0.119-0.087 0.189-0.11 0.144-0.032 0.218-0.025h0.974c0.116-0.011 0.223-0.064 0.301-0.149s0.122-0.196 0.122-0.311c0-0.115-0.043-0.226-0.122-0.311s-0.186-0.138-0.301-0.149h-0.858c-0.123-0.645-0.103-1.309 0.059-1.946s0.461-1.232 0.877-1.743c0.3 0.924 1.073 2.188 3.003 3.193 1.815 0.937 4.218 1.416 7.139 1.416h1.716c0.074-0.007 0.148 0.002 0.218 0.025s0.134 0.061 0.189 0.11c0.055 0.049 0.098 0.109 0.128 0.176s0.045 0.139 0.045 0.212c0 0.073-0.015 0.145-0.045 0.212s-0.073 0.127-0.128 0.176-0.119 0.087-0.189 0.11c-0.051 0.018-0.109 0.028-0.17 0.028-0.017 0-0.034-0.001-0.050-0.002l0.002 0h0.030zM19.817 27.915l-0.343 0.527 0.007 0.004 0.337-0.531zM23.514 28.093l0.629-0.014-0.016-0.728-0.718 0.122 0.105 0.62zM23.557 30.028l0.16 0.608 0.48-0.126-0.011-0.496-0.629 0.014zM18.705 30.12l0.141-0.613-0.004-0.001-0.137 0.614zM16.31 29.051l0.407-0.48-0.001-0.001-0.406 0.48zM15.444 27.086l0.629 0.003v-0.003h-0.629zM15.745 25.71l-0.564-0.278-0 0.001 0.565 0.277zM17.674 24.064l0.223 0.588 0.002-0.001-0.225-0.587zM23.852 23.905l0.627 0.049 0.041-0.531-0.517-0.128-0.151 0.61zM23.698 25.876l-0.117 0.618 0.69 0.131 0.055-0.7-0.627-0.049zM22.022 25.069c-0.944 0-1.737 0.101-2.317 0.356-0.297 0.131-0.567 0.314-0.764 0.574-0.203 0.268-0.3 0.58-0.3 0.909h1.258c0-0.074 0.018-0.115 0.044-0.149 0.033-0.043 0.106-0.111 0.268-0.182 0.338-0.148 0.92-0.249 1.81-0.249v-1.258zM18.642 26.908c0 0.647 0.29 1.181 0.832 1.534l0.687-1.054c-0.187-0.122-0.261-0.259-0.261-0.48h-1.258zM19.481 28.446c0.514 0.325 1.191 0.448 1.952 0.448v-1.258c-0.656 0-1.056-0.111-1.279-0.253l-0.673 1.063zM21.432 28.894c0.746 0 1.476-0.060 2.187-0.181l-0.21-1.24c-0.639 0.108-1.298 0.163-1.977 0.163v1.258zM22.885 28.107l0.043 1.934 1.257-0.028-0.043-1.934-1.257 0.028zM23.397 29.42c-0.719 0.189-1.512 0.286-2.383 0.286v1.258c0.964 0 1.866-0.108 2.703-0.328l-0.32-1.216zM21.015 29.706c-0.888 0-1.607-0.070-2.168-0.199l-0.282 1.226c0.684 0.157 1.504 0.231 2.45 0.231v-1.258zM18.843 29.506c-0.6-0.134-1.034-0.277-1.323-0.418l-0.552 1.13c0.415 0.203 0.956 0.371 1.6 0.515l0.275-1.227zM17.52 29.088c-0.31-0.151-0.576-0.324-0.803-0.516l-0.814 0.959c0.314 0.267 0.67 0.495 1.064 0.687l0.552-1.13zM16.716 28.571c-0.427-0.361-0.646-0.833-0.643-1.482l-1.258-0.006c-0.005 0.989 0.353 1.827 1.089 2.449l0.812-0.961zM16.073 27.086c0-0.423 0.083-0.785 0.237-1.099l-1.129-0.553c-0.247 0.505-0.365 1.060-0.365 1.652h1.258zM16.31 25.988c0.286-0.582 0.791-1.033 1.587-1.336l-0.446-1.176c-1.038 0.394-1.819 1.040-2.27 1.956l1.129 0.555zM17.899 24.652c0.837-0.321 1.77-0.486 2.808-0.486v-1.258c-1.173 0-2.262 0.187-3.259 0.57l0.451 1.174zM20.708 24.165c1.059 0 2.056 0.118 2.993 0.35l0.303-1.221c-1.044-0.259-2.143-0.387-3.296-0.387v1.258zM23.225 23.856l-0.154 1.971 1.254 0.098 0.154-1.971-1.254-0.098zM23.816 25.258c-0.654-0.124-1.254-0.189-1.794-0.189v1.258c0.442 0 0.961 0.054 1.56 0.167l0.234-1.236zM29.952 26.263l-0.003 0.629 0.639 0.004-0.007-0.639-0.629 0.007zM29.681 25.446l-0.428 0.461 0.005 0.005 0.422-0.466zM28.115 25.508l0.436 0.454 0.005-0.005-0.44-0.449zM27.735 26.251l-0.62-0.102-0.119 0.727 0.736 0.004 0.003-0.629zM32.359 29.604l0.38 0.501 0.226-0.171 0.021-0.283-0.627-0.047zM31.002 30.108l-0.135-0.614-0.004 0.001 0.139 0.613zM26.285 29.936l-0.214 0.591 0.005 0.002 0.209-0.593zM25.211 29.365l-0.39 0.493 0.008 0.006 0.383-0.499zM24.492 28.462l-0.564 0.279 0.001 0.003 0.563-0.281zM25.229 24.648l0.418 0.47 0-0-0.419-0.469zM30.977 23.966l0.252-0.576-0.006-0.003-0.246 0.579zM32.421 25.293l-0.566 0.275 0.002 0.004 0.564-0.278zM32.666 26.392l0.627 0.046 0.002-0.023v-0.023h-0.629zM32.593 27.405l-0.003 0.629 0.588 0.003 0.043-0.586-0.627-0.046zM27.612 27.381l0.003-0.629-0.82-0.004 0.209 0.793 0.608-0.16zM28.324 28.259l-0.309 0.547 0.003 0.001 0.307-0.549zM32.144 28.044v-0.629h-0.126l-0.116 0.048 0.242 0.581zM32.476 28.044l0.627 0.047 0.051-0.676h-0.678v0.629zM30.581 26.256c-0.005-0.455-0.109-0.943-0.477-1.276l-0.845 0.932c-0.007-0.007 0.007 0.001 0.025 0.056 0.019 0.058 0.037 0.154 0.039 0.302l1.258-0.013zM30.109 24.985c-0.33-0.306-0.763-0.408-1.189-0.408v1.258c0.245 0 0.32 0.059 0.334 0.071l0.856-0.922zM28.92 24.578c-0.468 0-0.904 0.147-1.245 0.481l0.88 0.898c0.069-0.067 0.169-0.121 0.364-0.121v-1.258zM27.68 25.054c-0.31 0.297-0.496 0.671-0.566 1.095l1.241 0.204c0.029-0.174 0.096-0.296 0.196-0.391l-0.871-0.907zM27.731 26.88l2.217 0.012 0.007-1.258-2.217-0.012-0.007 1.258zM31.979 29.103c-0.138 0.105-0.474 0.25-1.113 0.391l0.27 1.228c0.664-0.146 1.232-0.336 1.602-0.617l-0.76-1.002zM30.863 29.494c-0.609 0.138-1.195 0.206-1.759 0.206v1.258c0.665 0 1.344-0.080 2.037-0.237l-0.278-1.227zM29.104 29.7c-0.593 0-1.081-0.028-1.47-0.080l-0.168 1.247c0.462 0.062 1.010 0.092 1.638 0.092v-1.258zM27.634 29.619c-0.382-0.051-0.762-0.143-1.14-0.277l-0.419 1.186c0.457 0.161 0.921 0.274 1.391 0.337l0.168-1.247zM26.5 29.345c-0.368-0.133-0.667-0.295-0.906-0.479l-0.765 0.998c0.358 0.275 0.775 0.494 1.243 0.663l0.429-1.182zM25.601 28.871c-0.216-0.171-0.399-0.397-0.546-0.691l-1.125 0.563c0.221 0.443 0.517 0.819 0.891 1.115l0.781-0.986zM25.056 28.183c-0.132-0.268-0.211-0.612-0.211-1.054h-1.258c0 0.59 0.105 1.134 0.342 1.611l1.127-0.558zM24.844 27.129c0-0.442 0.080-0.833 0.231-1.181l-1.154-0.501c-0.226 0.521-0.334 1.084-0.334 1.681h1.258zM25.075 25.948c0.159-0.365 0.353-0.636 0.572-0.831l-0.836-0.939c-0.378 0.337-0.671 0.767-0.89 1.269l1.154 0.501zM25.647 25.117c0.676-0.603 1.707-0.952 3.193-0.952v-1.258c-1.667 0-3.043 0.392-4.030 1.271l0.837 0.939zM28.84 24.165c0.667 0 1.295 0.127 1.892 0.38l0.491-1.158c-0.755-0.32-1.551-0.48-2.383-0.48v1.258zM30.726 24.543c0.556 0.243 0.916 0.587 1.129 1.025l1.131-0.55c-0.36-0.741-0.963-1.281-1.757-1.628l-0.503 1.153zM31.857 25.571c0.117 0.238 0.181 0.508 0.181 0.821h1.258c0-0.489-0.101-0.952-0.311-1.378l-1.128 0.557zM32.039 26.346l-0.074 1.013 1.254 0.091 0.074-1.013-1.254-0.091zM32.596 26.777l-4.981-0.025-0.006 1.258 4.981 0.025 0.006-1.258zM27.004 27.541c0.147 0.558 0.507 0.98 1.011 1.265l0.619-1.095c-0.249-0.141-0.364-0.303-0.414-0.491l-1.216 0.321zM28.017 28.808c0.51 0.285 1.148 0.399 1.861 0.399v-1.258c-0.597 0-0.995-0.099-1.247-0.239l-0.614 1.098zM29.878 29.207c0.765 0 1.605-0.207 2.508-0.583l-0.483-1.161c-0.809 0.337-1.479 0.486-2.024 0.486v1.258zM32.144 28.673h0.332v-1.258h-0.332v1.258zM31.849 27.997l-0.117 1.56 1.254 0.094 0.117-1.56-1.254-0.094z"></path>
</symbol>
<symbol id="icon-burger-menu" viewBox="0 0 32 32">
<path stroke-linejoin="miter" stroke-linecap="round" stroke-miterlimit="4" stroke-width="2" d="M6 10h20M6 16h20M6 22h20"></path>
</symbol>
<symbol id="icon-close-black" viewBox="0 0 32 32">
<path d="M17.253 16l7.369-7.369c0.146-0.17 0.222-0.389 0.213-0.613s-0.101-0.436-0.26-0.594c-0.158-0.158-0.37-0.251-0.594-0.26s-0.442 0.067-0.612 0.213l-7.369 7.369-7.369-7.378c-0.167-0.167-0.394-0.261-0.631-0.261s-0.464 0.094-0.631 0.261c-0.167 0.167-0.261 0.394-0.261 0.631s0.094 0.464 0.261 0.631l7.378 7.369-7.378 7.369c-0.092 0.079-0.166 0.175-0.22 0.283l-0.002 0.005c-0.053 0.11-0.083 0.23-0.088 0.353s0.016 0.245 0.061 0.359c0.045 0.114 0.112 0.218 0.199 0.304s0.19 0.154 0.304 0.199c0.114 0.045 0.236 0.065 0.359 0.060s0.243-0.035 0.353-0.088c0.11-0.053 0.208-0.129 0.288-0.222l7.378-7.369 7.369 7.369c0.17 0.146 0.389 0.222 0.612 0.213s0.436-0.101 0.594-0.26c0.158-0.158 0.251-0.37 0.26-0.594s-0.067-0.442-0.213-0.612l-7.369-7.369z"></path>
</symbol>
<symbol id="icon-close-white" viewBox="0 0 32 32">
<path d="M23.884 6.706l-7.884 7.884-7.884-7.884c-0.19-0.174-0.439-0.267-0.696-0.261s-0.502 0.11-0.684 0.292c-0.182 0.182-0.286 0.427-0.292 0.684s0.088 0.506 0.261 0.696l7.88 7.884-7.882 7.882c-0.096 0.092-0.173 0.202-0.226 0.324s-0.081 0.253-0.083 0.386 0.023 0.265 0.073 0.388c0.050 0.123 0.124 0.235 0.218 0.329s0.206 0.169 0.329 0.219 0.255 0.075 0.388 0.074c0.133-0.002 0.264-0.029 0.386-0.082s0.232-0.13 0.324-0.226l7.886-7.882 7.884 7.884c0.19 0.174 0.439 0.267 0.696 0.262s0.502-0.11 0.684-0.292c0.182-0.182 0.286-0.427 0.292-0.684s-0.088-0.506-0.262-0.696l-7.884-7.884 7.884-7.886c0.096-0.092 0.173-0.202 0.226-0.324 0.051-0.114 0.081-0.246 0.083-0.386v-0.001c0.002-0.133-0.023-0.265-0.073-0.388s-0.124-0.235-0.218-0.329c-0.092-0.092-0.201-0.166-0.322-0.216l-0.007-0.002c-0.123-0.050-0.255-0.075-0.388-0.074-0.14 0.002-0.273 0.032-0.393 0.085l0.006-0.003c-0.127 0.056-0.234 0.132-0.324 0.226l-0 0v0.002z"></path>
</symbol>
</defs>
</svg>
