<?xml version="1.0" standalone="no"?>
<!DOCTYPE svg PUBLIC "-//W3C//DTD SVG 20010904//EN"
 "http://www.w3.org/TR/2001/REC-SVG-20010904/DTD/svg10.dtd">
<svg version="1.0" xmlns="http://www.w3.org/2000/svg"
 width="700.000000pt" height="700.000000pt" viewBox="0 0 700.000000 700.000000"
 preserveAspectRatio="xMidYMid meet">
<metadata>
Created by potrace 1.14, written by Peter Selinger 2001-2017
</metadata>
<g transform="translate(0.000000,700.000000) scale(0.100000,-0.100000)"
fill="#000000" stroke="none">
<path d="M3396 6965 c-265 -115 -553 -348 -662 -534 -88 -151 -152 -359 -158
-522 -2 -44 -6 -50 -107 -150 -123 -122 -139 -141 -196 -234 -79 -128 -128
-292 -136 -452 l-3 -72 -71 -74 c-152 -160 -261 -383 -300 -611 -12 -71 -11
-275 2 -351 10 -60 10 -81 2 -84 -29 -9 -98 -98 -117 -148 -64 -171 9 -345
175 -418 28 -13 68 -25 90 -29 22 -3 40 -5 41 -6 0 0 0 -136 1 -302 0 -333 0
-337 64 -399 59 -58 90 -67 239 -68 l86 -1 13 -112 c14 -124 17 -148 27 -223
3 -27 7 -63 9 -80 3 -37 13 -125 25 -225 5 -41 12 -100 15 -130 3 -30 8 -68
10 -85 7 -49 26 -207 29 -245 9 -83 17 -157 21 -180 3 -14 7 -52 10 -85 4 -33
8 -71 10 -85 2 -14 7 -56 11 -95 3 -38 8 -77 9 -85 4 -25 18 -138 30 -250 3
-30 8 -71 10 -90 3 -19 7 -57 10 -85 3 -27 7 -66 10 -85 7 -54 14 -110 20
-169 10 -94 59 -157 148 -190 19 -7 240 -11 656 -11 l627 0 46 29 c74 47 101
97 112 208 6 56 17 153 21 183 2 14 7 50 10 80 3 30 10 91 16 135 14 117 17
140 29 250 6 55 13 114 15 130 2 17 7 55 10 85 3 30 8 73 11 95 7 51 12 96 19
165 3 30 17 150 30 265 28 232 32 273 41 343 3 26 9 81 14 122 6 41 12 102 16
134 3 33 7 67 9 75 3 20 19 161 19 183 1 9 4 19 8 23 3 4 55 8 115 9 59 2 120
8 134 13 60 26 121 101 133 165 3 13 5 151 5 308 l1 285 38 3 c106 7 207 77
258 179 25 50 29 69 29 143 0 81 -2 89 -35 140 -19 30 -47 67 -62 82 l-28 28
20 53 c74 201 96 468 55 670 -23 116 -106 311 -177 415 -140 208 -342 402
-650 623 -65 46 -184 131 -264 189 -81 58 -176 134 -211 170 -121 120 -199
260 -243 433 -24 96 -27 126 -25 226 4 128 9 172 25 201 6 11 9 20 6 20 -3 0
-1 13 4 29 15 53 -39 111 -103 111 -12 0 -57 -16 -101 -35z m-40 -332 c-1
-202 41 -367 135 -543 100 -186 230 -317 489 -495 463 -318 635 -470 793 -702
185 -273 230 -572 131 -885 l-25 -80 -367 6 c-202 3 -383 8 -402 10 -19 2 -67
6 -105 10 -39 3 -80 8 -90 10 -11 2 -47 7 -80 10 -71 9 -114 15 -135 21 -8 2
-35 7 -60 10 -76 11 -340 81 -441 118 -376 137 -625 324 -757 569 -125 232
-110 547 36 778 40 63 110 150 122 150 4 0 15 -24 24 -54 56 -178 228 -375
452 -518 92 -58 319 -166 489 -232 94 -37 180 -71 193 -76 81 -35 161 23 153
110 -4 40 -37 66 -124 100 -248 96 -323 128 -427 177 -405 193 -588 434 -582
764 5 259 122 494 326 657 75 60 235 172 246 172 3 0 6 -39 6 -87z m-1141
-1957 c62 -144 198 -316 333 -426 277 -223 719 -392 1190 -456 20 -3 48 -7 62
-8 14 -2 57 -7 95 -11 39 -4 86 -8 105 -11 79 -9 311 -16 581 -17 319 -2 309
0 344 -73 13 -28 14 -41 5 -69 -13 -38 -52 -75 -81 -75 -11 0 -19 -4 -19 -9 0
-5 -68 -9 -152 -9 -230 0 -223 1 -257 -28 -24 -20 -31 -34 -31 -62 1 -69 37
-92 148 -94 l79 -2 -1 -281 -1 -280 -1215 0 c-668 0 -1222 1 -1231 3 -13 3
-15 37 -15 280 l1 277 962 1 c882 1 965 3 988 18 52 34 57 112 9 157 l-25 24
-1087 0 c-598 1 -1096 4 -1107 8 -28 10 -65 68 -65 101 0 37 23 79 52 94 14 7
82 13 171 14 l149 3 24 28 c51 60 18 155 -56 162 -19 2 -72 4 -117 4 l-82 1
-7 35 c-9 48 -10 207 -2 280 19 172 74 316 173 454 21 29 40 50 42 47 3 -3 20
-39 38 -80z m995 -2145 c0 -4 -65 -71 -145 -149 l-146 -141 -151 148 -152 149
297 0 c163 0 297 -3 297 -7z m804 -138 c-82 -79 -153 -143 -159 -143 -5 0 -75
65 -154 144 l-144 144 302 -1 302 -1 -147 -143z m-466 -141 c83 -82 152 -153
152 -158 0 -5 -70 -79 -156 -164 l-155 -154 -125 129 c-69 72 -140 145 -157
163 l-32 33 150 148 c83 82 155 149 160 150 6 1 79 -66 163 -147z m647 -24
c-4 -35 -9 -76 -11 -93 -2 -16 -7 -60 -10 -97 -4 -36 -10 -72 -14 -79 -6 -8
-31 11 -83 64 l-75 76 86 83 c48 46 90 89 95 96 16 24 19 11 12 -50z m-1110
-443 l157 -149 -161 -158 -161 -157 -134 132 c-125 123 -135 135 -139 175 l-5
44 137 134 c75 73 139 133 143 131 4 -1 77 -69 163 -152z m917 19 l133 -131
-7 -44 c-7 -39 -22 -58 -143 -179 l-135 -135 -157 157 -157 158 159 155 c88
85 163 154 167 152 4 -1 67 -61 140 -133z m-423 -498 c72 -70 131 -131 131
-135 0 -4 -30 -35 -67 -70 -38 -35 -110 -104 -161 -154 l-94 -90 -156 157
-156 156 159 160 160 160 26 -27 c15 -16 86 -86 158 -157z m-832 -163 c-17
-18 -32 -31 -35 -29 -2 2 -6 35 -9 73 l-5 68 40 -40 40 -40 -31 -32z m1329 65
c-3 -24 -5 -56 -5 -72 l-1 -30 -35 34 -35 34 38 38 c20 21 39 38 40 38 2 0 1
-19 -2 -42z m-1041 -546 c-137 -1 -255 0 -261 2 -6 2 -15 35 -19 72 -4 37 -9
78 -11 91 -4 19 13 42 86 114 l90 91 182 -184 183 -183 -250 -3z m917 270 c70
-71 87 -93 83 -113 -2 -13 -6 -53 -10 -89 -3 -35 -8 -67 -11 -70 -7 -6 -524
-8 -524 -1 0 6 364 361 370 361 3 0 44 -40 92 -88z m33 -509 c-2 -16 -7 -56
-11 -90 -3 -34 -7 -70 -9 -80 -2 -10 -4 -21 -4 -24 -2 -12 -1142 -7 -1146 5
-2 6 -6 38 -9 71 -3 33 -8 79 -12 103 l-6 42 601 0 601 0 -5 -27z"/>
</g>
</svg>
